{"title":"Robbie Williams - Go Gentle [Music Video] 1080p [Sbyky]","uid":9418685,"size":69070435,"categoryP":"video","categoryS":"music_videos","magnet":"?xt=urn:btih:b8ebd65e796cb31f2608e95efb6559996622c2fb&amp;dn=Robbie+Williams+-+Go+Gentle+%5BMusic+Video%5D+1080p+%5BSbyky%5D&amp;tr=udp%3A%2F%2Ftracker.openbittorrent.com%3A80&amp;tr=udp%3A%2F%2Fopen.demonii.com%3A1337&amp;tr=udp%3A%2F%2Ftracker.coppersurfer.tk%3A6969&amp;tr=udp%3A%2F%2Fexodus.desync.com%3A6969","seeders":1,"leechers":0,"uploader":"Sbyky","files":1,"time":1388511022,"description":"\n\nGeneral\nComplete name                            : Robbie Williams - Go Gentle [Music Video] 1080p [Sbyky].mp4\nFormat                                   : MPEG-4\nFormat profile                           : Base Media\nCodec ID                                 : isom\nFile size                                : 65.9 MiB\nDuration                                 : 3mn 49s\nOverall bit rate mode                    : Variable\nOverall bit rate                         : 2 408 Kbps\nEncoded date                             : UTC 2013-12-03 02:43:34\nTagged date                              : UTC 2013-12-03 02:43:34\n\nVideo\nID                                       : 1\nFormat                                   : AVC\nFormat/Info                              : Advanced Video Codec\nFormat profile                           : &lt;a class=&quot;__cf_email__&quot; href=&quot;/cdn-cgi/l/email-protection&quot; data-cfemail=&quot;632b0a040b232f574d53&quot;&gt;[email&amp;#160;protected]&lt;/a&gt;&lt;script cf-hash='f9e31' type=&quot;text/javascript&quot;&gt;\n/* &lt;![CDATA[ */!function(){try{var t=&quot;currentScript&quot;in document?document.currentScript:function(){for(var t=document.getElementsByTagName(&quot;script&quot;),e=t.length;e--;)if(t[e].getAttribute(&quot;cf-hash&quot;))return t[e]}();if(t&amp;&amp;t.previousSibling){var e,r,n,i,c=t.previousSibling,a=c.getAttribute(&quot;data-cfemail&quot;);if(a){for(e=&quot;&quot;,r=parseInt(a.substr(0,2),16),n=2;a.length-n;n+=2)i=parseInt(a.substr(n,2),16)^r,e+=String.fromCharCode(i);e=document.createTextNode(e),c.parentNode.replaceChild(e,c)}}}catch(u){}}();/* ]]&gt; */&lt;/script&gt;\nFormat settings, CABAC                   : Yes\nFormat settings, ReFrames                : 3 frames\nCodec ID                                 : avc1\nCodec ID/Info                            : Advanced Video Coding\nDuration                                 : 3mn 49s\nDuration_LastFrame                       : -42ms\nBit rate                                 : 2 280 Kbps\nWidth                                    : 1 920 pixels\nHeight                                   : 1 080 pixels\nDisplay aspect ratio                     : 16:9\nFrame rate mode                          : Constant\nFrame rate                               : 23.976 fps\nColor space                              : YUV\nChroma subsampling                       : 4:2:0\nBit depth                                : 8 bits\nScan type                                : Progressive\nBits/(Pixel*Frame)                       : 0.046\nStream size                              : 62.3 MiB (95%)\nEncoded date                             : UTC 2013-12-03 02:43:34\nTagged date                              : UTC 2013-12-03 02:43:34\n\nAudio\nID                                       : 2\nFormat                                   : AAC\nFormat/Info                              : Advanced Audio Codec\nFormat profile                           : LC\nCodec ID                                 : 40\nDuration                                 : 3mn 49s\nBit rate mode                            : Variable\nBit rate                                 : 126 Kbps\nChannel(s)                               : 2 channels\nChannel positions                        : Front: L R\nSampling rate                            : 44.1 KHz\nCompression mode                         : Lossy\nDelay relative to video                  : 42ms\nStream size                              : 3.44 MiB (5%)\nEncoded date                             : UTC 2013-12-03 02:42:56\nTagged date                              : UTC 2013-12-03 02:42:56\n\nShared By Sbyky\n","torrent":{"xt":"urn:btih:b8ebd65e796cb31f2608e95efb6559996622c2fb","amp;dn":"Robbie+Williams+-+Go+Gentle+%5BMusic+Video%5D+1080p+%5BSbyky%5D","amp;tr":["udp%3A%2F%2Ftracker.openbittorrent.com%3A80","udp%3A%2F%2Fopen.demonii.com%3A1337","udp%3A%2F%2Ftracker.coppersurfer.tk%3A6969","udp%3A%2F%2Fexodus.desync.com%3A6969"],"infoHash":"b8ebd65e796cb31f2608e95efb6559996622c2fb","infoHashBuffer":{"type":"Buffer","data":[184,235,214,94,121,108,179,31,38,8,233,94,251,101,89,153,102,34,194,251]},"announce":[],"urlList":[]}}